<?xml version="1.0" encoding="utf-8"?>
<!-- Generator: Adobe Illustrator 19.2.1, SVG Export Plug-In . SVG Version: 6.00 Build 0)  -->
<svg version="1.1" id="layer" xmlns="http://www.w3.org/2000/svg" xmlns:xlink="http://www.w3.org/1999/xlink" x="0px" y="0px"
	 viewBox="0 0 652 652" style="enable-background:new 0 0 652 652;" xml:space="preserve">
<style type="text/css">
	.st0{fill:#253858;}
	.st1{fill:url(#SVGID_1_);}
	.st2{fill:url(#SVGID_2_);}
</style>
<g id="Layer_2">
	<g id="Blue">
		<path class="st0" d="M180.3,353.9c-4.2,2.8-11,4-18,4c-22.3,0-35-13.4-35-34.9c0-20.7,12.6-35.2,34.8-35.2
			c6.6,0,13.2,1.2,18.1,4.7v9c-4.9-3.1-10.2-4.7-18.1-4.7c-15.9,0-25.5,10.6-25.5,26.2s9.8,26,26,26c6.1,0.1,12.2-1.4,17.6-4.1
			L180.3,353.9z"/>
		<path class="st0" d="M186.8,331c0-15.5,9.1-26.8,24.6-26.8s24.4,11.3,24.4,26.8s-9,27-24.4,27S186.8,346.5,186.8,331z M195.5,331
			c0,9.8,4.9,18.7,15.9,18.7s15.7-8.9,15.7-18.7s-4.7-18.5-15.7-18.5S195.5,321.2,195.5,331L195.5,331z"/>
		<path class="st0" d="M290.2,357h-8.9v-31.2c0-9.3-3.7-13.4-12.2-13.4c-8.2,0-14,5.5-14,15.9V357h-8.9v-51.7h8.9v8.5
			c3.2-6,9.5-9.7,16.3-9.5c11.9,0,18.7,8.2,18.7,22.5L290.2,357z"/>
		<path class="st0" d="M314.9,305.2h13.3v8.2h-13.3V357h-8.7v-43.5h-8.4v-8.2h8.4v-5.7c0-9.6,5.4-16.1,16.5-16.1c2,0,4,0.3,6,0.8
			v8.2c-1.8-0.4-3.7-0.5-5.6-0.5c-5.5,0-8.2,3.2-8.2,7.9L314.9,305.2z"/>
		<path class="st0" d="M351.7,357.3c-8.5,0-13.9-4-13.9-13.6v-60.1h8.9v59.1c0,4.7,3.1,6.3,6.9,6.3c0.9,0,1.7,0,2.6-0.1v8
			C354.8,357.2,353.2,357.3,351.7,357.3z"/>
		<path class="st0" d="M363.8,305.2h8.9v31.2c0,9.3,3.7,13.4,12.2,13.4c8.2,0,14-5.5,14-15.9v-28.8h8.9V357h-8.9v-8.5
			c-3.2,6-9.5,9.7-16.3,9.5c-11.9,0-18.7-8.2-18.7-22.4L363.8,305.2z"/>
		<path class="st0" d="M445.9,358c-19.4,0-27.8-11.2-27.8-27c0-15.6,8.7-26.8,24.4-26.8c15.9,0,22.3,11.1,22.3,26.8v4h-37.7
			c1.2,8.8,6.9,14.5,19.1,14.5c5.4,0,10.7-1,15.7-2.8v8.2C457.7,357.2,451.2,358,445.9,358z M427,327.4h28.9
			c-0.5-9.6-4.9-15.1-13.8-15.1C432.7,312.3,427.9,318.4,427,327.4L427,327.4z"/>
		<path class="st0" d="M519.4,357h-8.9v-31.2c0-9.3-3.7-13.4-12.2-13.4c-8.2,0-14,5.5-14,15.9V357h-8.9v-51.7h8.9v8.5
			c3.2-6,9.5-9.7,16.3-9.5c11.9,0,18.7,8.2,18.7,22.5V357z"/>
		<path class="st0" d="M568.3,355.6c-3.1,1.7-7.9,2.4-12.6,2.4c-18.4,0-27-11.2-27-27c0-15.6,8.6-26.8,27-26.8
			c4.2-0.1,8.5,0.7,12.3,2.5v8.2c-3.7-1.7-7.7-2.6-11.7-2.5c-13.4,0-18.9,8.5-18.9,18.5c0,10,5.6,18.6,19.1,18.6
			c4,0.1,8-0.5,11.8-1.9L568.3,355.6z"/>
		<path class="st0" d="M603.2,358c-19.4,0-27.8-11.2-27.8-27c0-15.6,8.7-26.8,24.4-26.8c15.9,0,22.3,11.1,22.3,26.8v4h-37.8
			c1.2,8.8,6.9,14.5,19.1,14.5c5.4,0,10.7-1,15.7-2.8v8.2C615,357.2,608.5,358,603.2,358z M584.3,327.4h28.9
			c-0.5-9.6-4.9-15.1-13.8-15.1C590,312.3,585.2,318.4,584.3,327.4L584.3,327.4z"/>
		
			<linearGradient id="SVGID_1_" gradientUnits="userSpaceOnUse" x1="92.3426" y1="289.0587" x2="46.1046" y2="315.6282" gradientTransform="matrix(1 0 0 -1 0 652)">
			<stop  offset="0.18" style="stop-color:#0052CC"/>
			<stop  offset="1" style="stop-color:#2684FF"/>
		</linearGradient>
		<path class="st1" d="M24.8,341.6c-0.8,1.2-1.6,2.7-2.4,3.8c-0.7,1.1-0.3,2.5,0.8,3.2l15.3,9.4c1.1,0.7,2.6,0.3,3.2-0.8
			c0,0,0,0,0,0c0.6-1,1.4-2.4,2.3-3.8c6.1-10,12.1-8.8,23.1-3.5l15.2,7.2c1.2,0.6,2.6,0.1,3.1-1.1c0,0,0,0,0-0.1l7.3-16.5
			c0.5-1.2,0-2.5-1.2-3.1c-3.2-1.5-9.6-4.5-15.3-7.3C55.7,319.2,38.2,319.8,24.8,341.6z"/>
		
			<linearGradient id="SVGID_2_" gradientUnits="userSpaceOnUse" x1="-48.9643" y1="2459.6758" x2="-95.2141" y2="2486.2571" gradientTransform="matrix(-1 0 0 1 -23.17 -2176.71)">
			<stop  offset="0.18" style="stop-color:#0052CC"/>
			<stop  offset="1" style="stop-color:#2684FF"/>
		</linearGradient>
		<path class="st2" d="M93.3,304.3c0.8-1.2,1.6-2.7,2.4-3.8c0.7-1.1,0.3-2.5-0.8-3.2l-15.3-9.4c-1.1-0.7-2.5-0.4-3.3,0.6
			c0,0-0.1,0.1-0.1,0.1c-0.6,1-1.4,2.4-2.3,3.8c-6.1,10-12.1,8.8-23.1,3.5l-15.1-7.2c-1.2-0.6-2.6-0.1-3.1,1.1c0,0,0,0,0,0.1
			l-7.3,16.5c-0.5,1.2,0,2.5,1.2,3.1c3.2,1.5,9.6,4.5,15.3,7.3C62.4,326.7,79.9,326,93.3,304.3z"/>
	</g>
</g>
</svg>
